# Blender v2.81 (sub 16) OBJ File: 'Less-Retarded-Man.blend'
# www.blender.org
mtllib Less-Retarded-Man.mtl
o Cube
v 0.925112 1.008386 -0.367487
v 0.562219 -0.833619 -0.367487
v 0.925112 1.008386 0.367487
v 0.562219 -0.833619 0.367487
v -0.925112 1.008386 -0.367487
v -0.562219 -0.833619 -0.367487
v -0.925112 1.008386 0.367487
v -0.562219 -0.833619 0.367487
v 0.925112 0.417611 0.367487
v -0.925112 0.417611 0.367487
v 0.925112 0.417611 -0.367487
v -0.925112 0.417611 -0.367487
v 1.487899 1.008386 -0.367487
v 1.487899 1.008386 0.367487
v 1.487899 0.417611 -0.367487
v 1.487899 0.417611 0.367487
v -1.471538 1.008386 0.367487
v -1.471538 1.008386 -0.367487
v -1.471538 0.417611 0.367487
v -1.471538 0.417611 -0.367487
v -0.925112 0.417611 1.396082
v -0.925112 1.008386 1.396082
v -1.471538 0.417611 1.396082
v -1.471538 1.008386 1.396082
v 0.925112 1.008386 1.399484
v 0.925112 0.417611 1.399484
v 1.487899 1.008386 1.399484
v 1.487899 0.417611 1.399484
v 0.925112 1.003510 0.367487
v -0.925112 1.003510 0.367487
v 0.925112 1.003510 -0.367487
v -0.925112 1.003510 -0.367487
v 0.310187 1.016260 0.304267
v -0.310187 1.016260 0.304267
v 0.310187 1.016260 -0.304267
v -0.310187 1.016260 -0.304267
v 0.310187 1.602376 0.304267
v -0.310187 1.602376 0.304267
v 0.310187 1.602376 -0.304267
v -0.310187 1.602376 -0.304267
v 0.000000 -0.833619 -0.367487
v 0.000000 1.008386 0.367487
v 0.000000 -0.833619 0.367487
v 0.000000 1.008386 -0.367487
v 0.000000 0.417611 0.367487
v 0.000000 0.417611 -0.367487
v 0.000000 1.003510 0.367487
v 0.000000 1.003510 -0.367487
v 0.000000 1.016260 0.304267
v 0.000000 1.016260 -0.304267
v 0.000000 1.602376 0.304267
v 0.000000 1.602376 -0.304267
v -0.562219 -0.842521 -0.367487
v -0.562219 -0.842521 0.367487
v 0.000000 -0.842521 -0.367487
v 0.000000 -0.842521 0.367487
v -0.076524 -0.842521 -0.367487
v -0.076524 -0.842521 0.367487
v 0.559377 -0.842521 -0.367487
v 0.559377 -0.842521 0.367487
v -0.562219 -1.893666 -0.367487
v -0.562219 -1.893666 0.367487
v -0.076524 -1.893666 -0.367487
v -0.076524 -1.893666 0.367487
v 0.082593 -0.848456 0.367487
v 0.562219 -0.848456 0.367487
v 0.562219 -0.848456 -0.367487
v 0.082593 -0.848456 -0.367487
v 0.082593 -1.882489 0.367487
v 0.562219 -1.882489 0.367487
v 0.562219 -1.882489 -0.367487
v 0.082593 -1.882489 -0.367487
v -0.562219 -2.073358 -0.367487
v -0.562219 -2.073358 0.367487
v -0.076524 -2.073358 -0.367487
v -0.076524 -2.073358 0.367487
v 0.082593 -2.071813 0.367487
v 0.562219 -2.071813 0.367487
v 0.562219 -2.071813 -0.367487
v 0.082593 -2.071813 -0.367487
v -0.562219 -2.073535 -0.367487
v -0.562219 -2.073535 0.367487
v -0.076524 -2.073535 -0.367487
v -0.076524 -2.073535 0.367487
vt 0.625000 0.375000
vt 0.625000 0.250000
vt 0.625000 0.250000
vt 0.625000 0.375000
vt 0.375000 0.875000
vt 0.625000 0.875000
vt 0.625000 1.000000
vt 0.375000 1.000000
vt 0.375000 0.000000
vt 0.625000 0.000000
vt 0.375000 0.250000
vt 0.375000 0.375000
vt 0.375000 0.500000
vt 0.375000 0.500000
vt 0.375000 0.375000
vt 0.625000 0.500000
vt 0.625000 0.750000
vt 0.375000 0.750000
vt 0.625000 0.250000
vt 0.625000 0.375000
vt 0.625000 0.750000
vt 0.625000 0.875000
vt 0.875000 0.750000
vt 0.875000 0.750000
vt 0.875000 0.750000
vt 0.875000 0.750000
vt 0.625000 0.500000
vt 0.625000 0.500000
vt 0.625000 0.500000
vt 0.625000 0.750000
vt 0.625000 0.750000
vt 0.625000 0.750000
vt 0.625000 0.750000
vt 0.625000 0.250000
vt 0.625000 0.000000
vt 0.625000 0.000000
vt 0.625000 0.250000
vt 0.875000 0.500000
vt 0.875000 0.500000
vt 0.625000 1.000000
vt 0.625000 1.000000
vt 0.625000 1.000000
vt 0.625000 1.000000
vt 0.625000 1.000000
vt 0.625000 0.000000
vt 0.625000 0.000000
vt 0.625000 0.000000
vt 0.625000 0.750000
vt 0.625000 0.750000
vt 0.875000 0.500000
vt 0.875000 0.750000
vt 0.875000 0.750000
vt 0.875000 0.500000
vt 0.625000 0.500000
vt 0.625000 0.750000
vt 0.625000 0.875000
vt 0.625000 0.375000
vt 0.625000 0.250000
vt 0.625000 0.250000
vt 0.625000 0.375000
vt 0.625000 0.750000
vt 0.625000 0.875000
vt 0.625000 0.500000
vt 0.750000 0.500000
vt 0.875000 0.500000
vt 0.875000 0.750000
vt 0.750000 0.750000
vt 0.625000 0.500000
vt 0.625000 0.750000
vt 0.625000 1.000000
vt 0.625000 1.000000
vt 0.375000 0.250000
vt 0.375000 0.000000
vt 0.250000 0.500000
vt 0.250000 0.750000
vt 0.250000 0.750000
vt 0.250000 0.500000
vt 0.250000 0.500000
vt 0.250000 0.750000
vt 0.375000 0.375000
vt 0.375000 1.000000
vt 0.375000 0.875000
vt 0.125000 0.500000
vt 0.125000 0.750000
vt 0.375000 0.375000
vt 0.375000 0.250000
vt 0.375000 1.000000
vt 0.375000 0.875000
vt 0.375000 0.250000
vt 0.375000 0.250000
vt 0.375000 0.000000
vt 0.375000 0.250000
vt 0.375000 0.000000
vt 0.125000 0.750000
vt 0.125000 0.500000
vt 0.375000 1.000000
vt 0.375000 1.000000
vt 0.250000 0.750000
vt 0.250000 0.500000
vt 0.250000 0.500000
vt 0.250000 0.750000
vt 0.375000 0.875000
vt 0.375000 0.750000
vt 0.375000 0.375000
vt 0.375000 0.500000
vt 0.375000 0.500000
vt 0.375000 0.375000
vt 0.375000 0.750000
vt 0.375000 0.875000
vt 0.375000 1.000000
vt 0.375000 1.000000
vt 0.375000 1.000000
vt 0.375000 1.000000
vt 0.125000 0.750000
vt 0.125000 0.500000
vt 0.375000 0.250000
vt 0.250000 0.500000
vt 0.375000 0.750000
vt 0.250000 0.750000
vt 0.375000 0.875000
vt 0.375000 0.000000
vt 0.375000 0.250000
vt 0.375000 0.250000
vt 0.375000 0.000000
vt 0.125000 0.750000
vt 0.125000 0.500000
vt 0.759503 0.500000
vt 0.759503 0.999913
vt 0.000087 0.999913
vt 0.000087 0.500000
vt 0.000087 0.000087
vt 0.759503 0.000087
vn 0.0000 0.0000 1.0000
vn -0.9811 -0.1933 0.0000
vn 0.0000 0.0000 -1.0000
vn 0.9811 -0.1933 0.0000
vn 0.0000 1.0000 0.0000
vn -1.0000 0.0000 0.0000
vn 0.0000 -1.0000 0.0000
vn 1.0000 0.0000 0.0000
vn -0.0207 0.9998 0.0000
vn 0.0000 0.9803 0.1977
vn 0.0000 0.9803 -0.1977
vn 0.0207 0.9998 0.0000
vn -0.1768 -0.9842 0.0000
usemtl ZombieSkin
s off
f 44/1/1 5/2/1 12/3/1 46/4/1
f 43/5/1 42/6/1 7/7/1 8/8/1
f 8/9/2 7/10/2 5/2/2 6/11/2
f 41/12/3 2/13/3 67/14/3 68/15/3
f 2/13/4 1/16/4 3/17/4 4/18/4
f 41/12/3 44/1/3 1/16/3 2/13/3
f 46/4/3 12/3/3 32/19/3 48/20/3
f 42/6/3 3/17/3 9/21/3 45/22/3
f 10/23/5 19/24/5 23/25/5 21/26/5
f 1/16/1 11/27/1 15/28/1 13/29/1
f 14/30/6 13/29/6 15/28/6 16/31/6
f 11/27/5 9/21/5 16/31/5 15/28/5
f 3/17/7 1/16/7 13/29/7 14/30/7
f 16/31/5 9/21/5 26/32/5 28/33/5
f 18/34/8 17/35/8 19/36/8 20/37/8
f 5/2/7 7/10/7 17/35/7 18/34/7
f 12/3/1 5/2/1 18/34/1 20/37/1
f 10/23/5 12/38/5 20/39/5 19/24/5
f 22/40/3 21/41/3 23/42/3 24/43/3
f 7/7/6 10/44/6 21/41/6 22/40/6
f 17/35/7 7/10/7 22/45/7 24/46/7
f 19/36/8 17/35/8 24/46/8 23/47/8
f 26/32/3 25/48/3 27/49/3 28/33/3
f 9/21/8 3/17/8 25/48/8 26/32/8
f 3/17/7 14/30/7 27/49/7 25/48/7
f 14/30/6 16/31/6 28/33/6 27/49/6
f 32/50/9 30/51/9 34/52/9 36/53/9
f 9/21/8 11/27/8 31/54/8 29/55/8
f 12/38/6 10/23/6 30/51/6 32/50/6
f 45/22/1 9/21/1 29/55/1 47/56/1
f 50/57/3 36/58/3 40/59/3 52/60/3
f 47/56/10 29/55/10 33/61/10 49/62/10
f 48/20/11 32/19/11 36/58/11 50/57/11
f 29/55/12 31/54/12 35/63/12 33/61/12
f 52/64/5 40/65/5 38/66/5 51/67/5
f 33/61/8 35/63/8 39/68/8 37/69/8
f 36/53/6 34/52/6 38/66/6 40/65/6
f 39/68/5 52/64/5 51/67/5 37/69/5
f 31/54/11 48/20/11 50/57/11 35/63/11
f 30/70/10 47/56/10 49/62/10 34/71/10
f 35/63/3 50/57/3 52/60/3 39/68/3
f 10/44/1 45/22/1 47/56/1 30/70/1
f 7/7/3 42/6/3 45/22/3 10/44/3
f 11/27/3 46/4/3 48/20/3 31/54/3
f 6/11/3 5/2/3 44/1/3 41/12/3
f 8/9/6 6/11/6 53/72/6 54/73/6
f 4/18/1 3/17/1 42/6/1 43/5/1
f 1/16/1 44/1/1 46/4/1 11/27/1
f 55/74/5 56/75/5 60/76/5 59/77/5
f 41/78/8 43/79/8 56/75/8 55/74/8
f 6/11/3 41/12/3 55/80/3 53/72/3
f 43/5/1 8/8/1 54/81/1 56/82/1
f 57/83/7 59/77/7 60/76/7 58/84/7
f 53/72/1 55/80/1 59/85/1 57/86/1
f 56/82/1 54/81/1 58/87/1 60/88/1
f 53/72/3 57/86/3 63/89/3 61/90/3
f 62/91/6 61/90/6 73/92/6 74/93/6
f 57/83/8 58/84/8 64/94/8 63/95/8
f 58/87/1 54/81/1 62/96/1 64/97/1
f 54/73/6 53/72/6 61/90/6 62/91/6
f 65/98/6 68/99/6 72/100/6 69/101/6
f 4/18/1 43/5/1 65/102/1 66/103/1
f 2/13/8 4/18/8 66/103/8 67/14/8
f 43/79/13 41/78/13 68/99/13 65/98/13
f 72/104/3 71/105/3 79/106/3 80/107/3
f 67/14/8 66/103/8 70/108/8 71/105/8
f 68/15/3 67/14/3 71/105/3 72/104/3
f 66/103/1 65/102/1 69/109/1 70/108/1
f 76/110/1 74/111/1 82/112/1 84/113/1
f 64/97/1 62/96/1 74/111/1 76/110/1
f 63/95/8 64/94/8 76/114/8 75/115/8
f 61/90/3 63/89/3 75/116/3 73/92/3
f 80/117/7 79/106/7 78/118/7 77/119/7
f 70/108/1 69/109/1 77/120/1 78/118/1
f 69/101/6 72/100/6 80/117/6 77/119/6
f 71/105/8 70/108/8 78/118/8 79/106/8
f 82/121/7 81/122/7 83/123/7 84/124/7
f 75/115/8 76/114/8 84/125/8 83/126/8
f 73/92/3 75/116/3 83/123/3 81/122/3
f 74/93/6 73/92/6 81/122/6 82/121/6
usemtl ZombieFace
f 49/127/1 33/128/1 37/129/1 51/130/1 38/131/1 34/132/1
